<svg width="243" height="243" viewBox="0 0 243 243" fill="none" xmlns="http://www.w3.org/2000/svg">
<g filter="url(#filter0_d_2085_2)">
<circle cx="121.125" cy="118.453" r="114" fill="#191919"/>
<path d="M122.969 21.553C107.7 21.553 92.5908 25.131 78.9288 31.9198L85.0676 42.5694C96.8562 36.8214 109.845 33.807 122.969 33.807C136.093 33.807 149.277 36.9078 160.931 42.593L167.069 31.9571C153.566 25.2292 138.506 21.553 122.967 21.553H122.969ZM209.517 126.655C209.124 132.108 208.205 137.573 206.759 142.978C201.294 163.368 188.905 180.696 171.566 192.373L177.693 203.009C197.875 189.688 212.285 169.691 218.597 146.151C220.325 139.694 221.403 133.175 221.82 126.655H209.517ZM47.9128 163.88C41.1122 152.117 37.3986 139.384 36.5169 126.653H24.2256C25.1329 141.468 29.3844 156.308 37.3005 170.007C45.0574 183.449 55.7679 194.651 68.3283 202.969L74.4671 192.334C63.733 185.091 54.5798 175.435 47.9128 163.88Z" fill="#F79C00"/>
<path d="M122.97 46.0601C111.99 46.0601 101.133 48.5109 91.2194 53.2161L97.3582 63.8657C105.384 60.2268 114.133 58.3141 122.968 58.3141C131.803 58.3141 140.687 60.2739 148.64 63.8775L154.779 53.2416C144.976 48.5855 134.132 46.0601 122.968 46.0601H122.97ZM184.914 126.656C184.584 130.002 183.971 133.323 183.087 136.63C179.325 150.685 170.955 162.73 159.267 171.088L165.417 181.738C179.937 171.715 190.304 157.034 194.925 139.805C196.089 135.455 196.861 131.057 197.217 126.658H184.914V126.656ZM69.1386 151.629C64.5689 143.725 61.9453 135.21 61.1126 126.656H48.8213C49.6677 137.292 52.8412 147.916 58.5263 157.756C64.1015 167.424 71.7112 175.536 80.6209 181.701L86.7597 171.051C79.6763 165.965 73.6239 159.398 69.1386 151.629Z" fill="#F79C00"/>
<path d="M135.931 72.2847C125.038 69.3684 113.738 70.1775 103.519 74.5391L109.707 85.2496C114.019 83.6314 118.493 82.8479 122.941 82.8479C127.389 82.8479 132.033 83.6805 136.273 85.2869L142.486 74.5273C140.365 73.6456 138.185 72.8856 135.931 72.2847ZM160.168 126.656C158.709 135.491 154.139 143.763 146.909 149.681L153.097 160.392C161.969 153.739 168.328 144.352 171.244 133.459C171.845 131.204 172.298 128.936 172.579 126.658H160.166L160.168 126.656ZM90.3575 139.375C88.0167 135.32 86.5222 131.018 85.8113 126.656H73.4355C74.2191 133.113 76.2909 139.523 79.7472 145.502C83.1543 151.396 87.6141 156.445 92.8947 160.427L99.0944 149.693C95.6263 146.85 92.6728 143.382 90.3575 139.375Z" fill="#F79C00"/>
<path d="M160.942 198.499L167.081 209.135C153.417 215.935 138.31 219.502 123.041 219.502C107.773 219.502 92.4434 215.825 78.9384 209.097L85.0772 198.462L91.2278 187.826L97.3666 177.176L103.517 166.54L109.705 155.818L115.968 144.974C111.985 143.821 108.332 141.714 105.355 138.835C103.653 137.205 102.17 135.33 100.968 133.248C99.7545 131.153 98.861 128.936 98.2974 126.656C97.292 122.673 97.2919 118.494 98.3092 114.402H24.2588C26.1578 84.3421 41.7208 55.6571 68.3124 38.0479L74.4512 48.6975L80.59 59.3333L86.7405 69.9829L92.9166 80.6679L99.0927 91.3784L105.342 102.199C106.812 100.789 108.466 99.5399 110.28 98.499C112.107 97.4582 113.994 96.6374 115.954 96.0738C118.208 95.412 120.549 95.0821 122.963 95.0821C125.376 95.0821 127.766 95.4257 130.032 96.0875C134.015 97.2403 137.665 99.3474 140.644 102.226L146.893 91.3941L153.107 80.6482L159.245 70.0124L165.384 59.3765L171.535 48.7269L177.674 38.1028C190.234 46.4234 200.944 57.6111 208.701 71.0532C216.482 84.5208 220.906 99.3101 221.825 114.408H147.702C148.694 118.39 148.708 122.581 147.702 126.662C147.665 126.821 147.616 126.968 147.581 127.127C146.355 131.661 143.965 135.693 140.656 138.867C139.185 140.277 137.532 141.526 135.717 142.566C133.891 143.621 132.004 144.442 130.044 145.005L136.293 155.826L142.481 166.536L148.645 177.21L154.795 187.859L160.934 198.509L160.942 198.499Z" fill="white"/>
<path d="M124.872 133.78V112.169H116.397V107.321H139.164V112.169H130.65V133.78H124.872Z" fill="black"/>
<path d="M112.459 134.209C110.43 134.209 108.697 133.913 107.259 133.323C105.846 132.706 104.755 131.795 103.984 130.588C103.24 129.381 102.867 127.853 102.867 126.004V124.809H108.491V126.004C108.491 127.185 108.812 128.071 109.454 128.661C110.122 129.226 111.111 129.509 112.421 129.509C113.679 129.509 114.629 129.098 115.271 128.276C115.913 127.429 116.234 126.222 116.234 124.655V107.321H122.012V124.655C122.012 126.787 121.64 128.572 120.895 130.01C120.151 131.422 119.059 132.475 117.621 133.169C116.208 133.862 114.488 134.209 112.459 134.209Z" fill="black"/>
<path d="M117.016 107.973H121.139V112.096H117.016V107.973Z" fill="#F79C00"/>
</g>
<defs>
<filter id="filter0_d_2085_2" x="0" y="0" width="242.25" height="242.25" filterUnits="userSpaceOnUse" color-interpolation-filters="sRGB">
<feFlood flood-opacity="0" result="BackgroundImageFix"/>
<feColorMatrix in="SourceAlpha" type="matrix" values="0 0 0 0 0 0 0 0 0 0 0 0 0 0 0 0 0 0 127 0" result="hardAlpha"/>
<feOffset dy="2.67188"/>
<feGaussianBlur stdDeviation="3.5625"/>
<feComposite in2="hardAlpha" operator="out"/>
<feColorMatrix type="matrix" values="0 0 0 0 0.968627 0 0 0 0 0.611765 0 0 0 0 0 0 0 0 0.08 0"/>
<feBlend mode="normal" in2="BackgroundImageFix" result="effect1_dropShadow_2085_2"/>
<feBlend mode="normal" in="SourceGraphic" in2="effect1_dropShadow_2085_2" result="shape"/>
</filter>
</defs>
</svg>
